<svg xmlns="http://www.w3.org/2000/svg" xmlns:xlink="http://www.w3.org/1999/xlink" width="139" height="139" viewBox="0 0 139 139" fill="none"><g opacity="1" transform="translate(0 0)  rotate(0 69.5 69.5)"><path id="圆形 1" fill-rule="evenodd" style="fill:#CCCCCC" transform="translate(0 0)  rotate(0 69.5 69.5)" opacity="0" d="M69.5,0C31.12,0 0,31.12 0,69.5C0,107.88 31.12,139 69.5,139C107.88,139 139,107.88 139,69.5C139,31.12 107.88,0 69.5,0Z " /><g opacity="1" transform="translate(19.517123287671232 32.8458904109589)  rotate(0 50.10188356164383 36.6541095890411)"><path id="矩形 1" fill-rule="evenodd" style="fill:#C7CFFF" transform="translate(0 21.068897637795274)  rotate(0 20.112842465753427 26.119660770143458)" opacity="1" d="M0,52.24L25.95,52.24L40.23,0L14.27,0L0,52.24Z " /><path id="矩形 1" fill-rule="evenodd" style="fill:#5770F5" transform="translate(36.04452054794519 0)  rotate(0 20.112842465753427 26.119660770143458)" opacity="1" d="M0,52.24L25.95,52.24L40.23,0L14.27,0L0,52.24Z " /><path id="矩形 1" fill-rule="evenodd" style="fill:#5770F5" transform="translate(68.05205479452053 0)  rotate(0 16.075856164383566 11.400293927300185)" opacity="1" d="M0,22.8L25.95,22.8L32.15,0L6.2,0L0,22.8Z " /></g></g></svg>